<svg xmlns="http://www.w3.org/2000/svg" xmlns:xlink="http://www.w3.org/1999/xlink"  zoomAndPan="magnify" viewBox="70 120 250 140"
  preserveAspectRatio="xMidYMid meet" version="1.0"><defs><g/><clipPath id="7de1c603e8"><path d="M 80.492188 137 L 197 137 L 197 187.488281 L 80.492188 187.488281 Z M 80.492188 137 " clip-rule="nonzero"/></clipPath><clipPath id="ed28b2bd9a"><path d="M 154 135.738281 L 229.742188 135.738281 L 229.742188 186 L 154 186 Z M 154 135.738281 " clip-rule="nonzero"/></clipPath></defs><path fill="#4caf50" d="M 123.308594 179.199219 L 116.46875 179.199219 L 116.46875 172.359375 L 123.308594 172.359375 L 123.308594 179.199219 " fill-opacity="1" fill-rule="nonzero"/><path fill="#4caf50" d="M 123.308594 171.027344 L 116.46875 171.027344 L 116.46875 164.1875 L 123.308594 164.1875 L 123.308594 171.027344 " fill-opacity="1" fill-rule="nonzero"/><path fill="#4caf50" d="M 131.496094 179.199219 L 124.660156 179.199219 L 124.660156 172.359375 L 131.496094 172.359375 L 131.496094 179.199219 " fill-opacity="1" fill-rule="nonzero"/><path fill="#4caf50" d="M 131.496094 171.027344 L 124.660156 171.027344 L 124.660156 164.1875 L 131.496094 164.1875 L 131.496094 171.027344 " fill-opacity="1" fill-rule="nonzero"/><g clip-path="url(#7de1c603e8)"><path fill="#4caf50" d="M 184.832031 162.816406 L 166.140625 171.773438 L 146.21875 154.164062 L 158.597656 146.335938 L 125.640625 137.957031 L 80.492188 178.242188 L 93.671875 178.242188 L 124.542969 152.113281 L 158.417969 187.671875 L 196.683594 175.40625 L 184.832031 162.816406 " fill-opacity="1" fill-rule="nonzero"/></g><g clip-path="url(#ed28b2bd9a)"><path fill="#4caf50" d="M 178.382812 135.742188 L 154.289062 157.238281 L 161.289062 163.429688 L 177.28125 149.894531 L 211.15625 185.453125 L 229.933594 179.304688 L 178.382812 135.742188 " fill-opacity="1" fill-rule="nonzero"/></g><g fill="#000000" fill-opacity="1"><g transform="translate(78.346944, 219.715356)"><g><path d="M 21.484375 -22.859375 L 21.484375 -8.078125 C 21.484375 -6.378906 21.101562 -4.894531 20.34375 -3.625 C 19.59375 -2.351562 18.503906 -1.378906 17.078125 -0.703125 C 15.648438 -0.0234375 13.960938 0.3125 12.015625 0.3125 C 9.066406 0.3125 6.78125 -0.4375 5.15625 -1.9375 C 3.53125 -3.445312 2.71875 -5.515625 2.71875 -8.140625 L 2.71875 -22.859375 L 7.546875 -22.859375 L 7.546875 -8.875 C 7.546875 -7.101562 7.898438 -5.804688 8.609375 -4.984375 C 9.328125 -4.160156 10.503906 -3.75 12.140625 -3.75 C 13.722656 -3.75 14.867188 -4.160156 15.578125 -4.984375 C 16.296875 -5.816406 16.65625 -7.125 16.65625 -8.90625 L 16.65625 -22.859375 Z M 21.484375 -22.859375 "/></g></g></g><g fill="#000000" fill-opacity="1"><g transform="translate(102.546253, 219.715356)"><g><path d="M 12.265625 -17.8125 C 12.910156 -17.8125 13.445312 -17.765625 13.875 -17.671875 L 13.515625 -13.203125 C 13.128906 -13.304688 12.660156 -13.359375 12.109375 -13.359375 C 10.585938 -13.359375 9.398438 -12.96875 8.546875 -12.1875 C 7.691406 -11.40625 7.265625 -10.3125 7.265625 -8.90625 L 7.265625 0 L 2.5 0 L 2.5 -17.484375 L 6.109375 -17.484375 L 6.8125 -14.546875 L 7.046875 -14.546875 C 7.585938 -15.523438 8.320312 -16.3125 9.25 -16.90625 C 10.175781 -17.507812 11.179688 -17.8125 12.265625 -17.8125 Z M 12.265625 -17.8125 "/></g></g></g><g fill="#000000" fill-opacity="1"><g transform="translate(117.084597, 219.715356)"><g><path d="M 12.234375 -17.8125 C 14.296875 -17.8125 15.910156 -17.003906 17.078125 -15.390625 C 18.242188 -13.785156 18.828125 -11.582031 18.828125 -8.78125 C 18.828125 -5.882812 18.222656 -3.644531 17.015625 -2.0625 C 15.816406 -0.476562 14.179688 0.3125 12.109375 0.3125 C 10.054688 0.3125 8.441406 -0.429688 7.265625 -1.921875 L 6.9375 -1.921875 L 6.140625 0 L 2.5 0 L 2.5 -24.34375 L 7.265625 -24.34375 L 7.265625 -18.671875 C 7.265625 -17.953125 7.203125 -16.800781 7.078125 -15.21875 L 7.265625 -15.21875 C 8.390625 -16.945312 10.046875 -17.8125 12.234375 -17.8125 Z M 10.703125 -14 C 9.523438 -14 8.660156 -13.632812 8.109375 -12.90625 C 7.566406 -12.1875 7.285156 -10.992188 7.265625 -9.328125 L 7.265625 -8.8125 C 7.265625 -6.925781 7.546875 -5.578125 8.109375 -4.765625 C 8.671875 -3.953125 9.554688 -3.546875 10.765625 -3.546875 C 11.742188 -3.546875 12.519531 -3.992188 13.09375 -4.890625 C 13.675781 -5.796875 13.96875 -7.113281 13.96875 -8.84375 C 13.96875 -10.5625 13.675781 -11.847656 13.09375 -12.703125 C 12.507812 -13.566406 11.710938 -14 10.703125 -14 Z M 10.703125 -14 "/></g></g></g><g fill="#000000" fill-opacity="1"><g transform="translate(137.344484, 219.715356)"><g><path d="M 13.609375 0 L 12.6875 -2.375 L 12.5625 -2.375 C 11.757812 -1.363281 10.929688 -0.660156 10.078125 -0.265625 C 9.234375 0.117188 8.125 0.3125 6.75 0.3125 C 5.070312 0.3125 3.75 -0.164062 2.78125 -1.125 C 1.820312 -2.082031 1.34375 -3.445312 1.34375 -5.21875 C 1.34375 -7.082031 1.988281 -8.453125 3.28125 -9.328125 C 4.582031 -10.210938 6.546875 -10.703125 9.171875 -10.796875 L 12.203125 -10.890625 L 12.203125 -11.65625 C 12.203125 -13.425781 11.296875 -14.3125 9.484375 -14.3125 C 8.078125 -14.3125 6.429688 -13.890625 4.546875 -13.046875 L 2.96875 -16.265625 C 4.976562 -17.316406 7.210938 -17.84375 9.671875 -17.84375 C 12.015625 -17.84375 13.8125 -17.332031 15.0625 -16.3125 C 16.3125 -15.289062 16.9375 -13.738281 16.9375 -11.65625 L 16.9375 0 Z M 12.203125 -8.109375 L 10.359375 -8.046875 C 8.972656 -7.992188 7.9375 -7.738281 7.25 -7.28125 C 6.570312 -6.820312 6.234375 -6.125 6.234375 -5.1875 C 6.234375 -3.84375 7.007812 -3.171875 8.5625 -3.171875 C 9.664062 -3.171875 10.546875 -3.488281 11.203125 -4.125 C 11.867188 -4.757812 12.203125 -5.601562 12.203125 -6.65625 Z M 12.203125 -8.109375 "/></g></g></g><g fill="#000000" fill-opacity="1"><g transform="translate(156.682045, 219.715356)"><g><path d="M 18.640625 0 L 13.875 0 L 13.875 -10.21875 C 13.875 -11.476562 13.648438 -12.421875 13.203125 -13.046875 C 12.753906 -13.679688 12.039062 -14 11.0625 -14 C 9.726562 -14 8.757812 -13.550781 8.15625 -12.65625 C 7.5625 -11.769531 7.265625 -10.296875 7.265625 -8.234375 L 7.265625 0 L 2.5 0 L 2.5 -17.484375 L 6.140625 -17.484375 L 6.78125 -15.25 L 7.046875 -15.25 C 7.578125 -16.09375 8.3125 -16.726562 9.25 -17.15625 C 10.1875 -17.59375 11.25 -17.8125 12.4375 -17.8125 C 14.46875 -17.8125 16.007812 -17.257812 17.0625 -16.15625 C 18.113281 -15.0625 18.640625 -13.476562 18.640625 -11.40625 Z M 18.640625 0 "/></g></g></g><g fill="#000000" fill-opacity="1"><g transform="translate(177.723563, 219.715356)"><g/></g></g><g fill="#000000" fill-opacity="1"><g transform="translate(186.040121, 219.715356)"><g><path d="M 21.609375 0 L 16.78125 0 L 16.78125 -9.875 L 7.71875 -9.875 L 7.71875 0 L 2.875 0 L 2.875 -22.859375 L 7.71875 -22.859375 L 7.71875 -13.90625 L 16.78125 -13.90625 L 16.78125 -22.859375 L 21.609375 -22.859375 Z M 21.609375 0 "/></g></g></g><g fill="#000000" fill-opacity="1"><g transform="translate(210.53645, 219.715356)"><g><path d="M 6.296875 -8.78125 C 6.296875 -7.039062 6.582031 -5.726562 7.15625 -4.84375 C 7.726562 -3.957031 8.65625 -3.515625 9.9375 -3.515625 C 11.207031 -3.515625 12.117188 -3.953125 12.671875 -4.828125 C 13.234375 -5.710938 13.515625 -7.03125 13.515625 -8.78125 C 13.515625 -10.507812 13.234375 -11.804688 12.671875 -12.671875 C 12.109375 -13.535156 11.1875 -13.96875 9.90625 -13.96875 C 8.625 -13.96875 7.703125 -13.535156 7.140625 -12.671875 C 6.578125 -11.816406 6.296875 -10.519531 6.296875 -8.78125 Z M 18.390625 -8.78125 C 18.390625 -5.925781 17.640625 -3.695312 16.140625 -2.09375 C 14.640625 -0.488281 12.550781 0.3125 9.875 0.3125 C 8.1875 0.3125 6.703125 -0.0507812 5.421875 -0.78125 C 4.140625 -1.519531 3.15625 -2.578125 2.46875 -3.953125 C 1.78125 -5.328125 1.4375 -6.9375 1.4375 -8.78125 C 1.4375 -11.632812 2.179688 -13.851562 3.671875 -15.4375 C 5.160156 -17.019531 7.257812 -17.8125 9.96875 -17.8125 C 11.644531 -17.8125 13.125 -17.445312 14.40625 -16.71875 C 15.6875 -15.988281 16.671875 -14.941406 17.359375 -13.578125 C 18.046875 -12.210938 18.390625 -10.613281 18.390625 -8.78125 Z M 18.390625 -8.78125 "/></g></g></g><g fill="#000000" fill-opacity="1"><g transform="translate(230.358623, 219.715356)"><g><path d="M 18.15625 0 L 13.390625 0 L 13.390625 -10.21875 C 13.390625 -11.476562 13.175781 -12.421875 12.75 -13.046875 C 12.332031 -13.679688 11.671875 -14 10.765625 -14 C 9.546875 -14 8.65625 -13.550781 8.09375 -12.65625 C 7.539062 -11.757812 7.265625 -10.285156 7.265625 -8.234375 L 7.265625 0 L 2.5 0 L 2.5 -17.484375 L 6.140625 -17.484375 L 6.78125 -15.25 L 7.046875 -15.25 C 7.515625 -16.050781 8.191406 -16.675781 9.078125 -17.125 C 9.972656 -17.582031 10.992188 -17.8125 12.140625 -17.8125 C 14.753906 -17.8125 16.523438 -16.957031 17.453125 -15.25 L 17.875 -15.25 C 18.34375 -16.0625 19.03125 -16.691406 19.9375 -17.140625 C 20.851562 -17.585938 21.882812 -17.8125 23.03125 -17.8125 C 25.019531 -17.8125 26.519531 -17.300781 27.53125 -16.28125 C 28.550781 -15.269531 29.0625 -13.644531 29.0625 -11.40625 L 29.0625 0 L 24.28125 0 L 24.28125 -10.21875 C 24.28125 -11.476562 24.066406 -12.421875 23.640625 -13.046875 C 23.210938 -13.679688 22.546875 -14 21.640625 -14 C 20.472656 -14 19.597656 -13.582031 19.015625 -12.75 C 18.441406 -11.914062 18.15625 -10.59375 18.15625 -8.78125 Z M 18.15625 0 "/></g></g></g><g fill="#000000" fill-opacity="1"><g transform="translate(261.795838, 219.715356)"><g><path d="M 9.75 -14.421875 C 8.738281 -14.421875 7.941406 -14.097656 7.359375 -13.453125 C 6.785156 -12.816406 6.457031 -11.910156 6.375 -10.734375 L 13.078125 -10.734375 C 13.054688 -11.910156 12.75 -12.816406 12.15625 -13.453125 C 11.5625 -14.097656 10.757812 -14.421875 9.75 -14.421875 Z M 10.421875 0.3125 C 7.597656 0.3125 5.394531 -0.460938 3.8125 -2.015625 C 2.226562 -3.566406 1.4375 -5.769531 1.4375 -8.625 C 1.4375 -11.550781 2.164062 -13.8125 3.625 -15.40625 C 5.09375 -17.007812 7.125 -17.8125 9.71875 -17.8125 C 12.1875 -17.8125 14.109375 -17.109375 15.484375 -15.703125 C 16.859375 -14.296875 17.546875 -12.351562 17.546875 -9.875 L 17.546875 -7.546875 L 6.265625 -7.546875 C 6.316406 -6.191406 6.71875 -5.132812 7.46875 -4.375 C 8.226562 -3.613281 9.285156 -3.234375 10.640625 -3.234375 C 11.691406 -3.234375 12.6875 -3.34375 13.625 -3.5625 C 14.5625 -3.78125 15.539062 -4.128906 16.5625 -4.609375 L 16.5625 -0.921875 C 15.726562 -0.503906 14.835938 -0.195312 13.890625 0 C 12.941406 0.207031 11.785156 0.3125 10.421875 0.3125 Z M 10.421875 0.3125 "/></g></g></g><g fill="#000000" fill-opacity="1"><g transform="translate(280.711318, 219.715356)"><g><path d="M 14.703125 -5.1875 C 14.703125 -3.394531 14.078125 -2.03125 12.828125 -1.09375 C 11.585938 -0.15625 9.722656 0.3125 7.234375 0.3125 C 5.960938 0.3125 4.878906 0.222656 3.984375 0.046875 C 3.085938 -0.117188 2.25 -0.367188 1.46875 -0.703125 L 1.46875 -4.640625 C 2.351562 -4.222656 3.347656 -3.875 4.453125 -3.59375 C 5.566406 -3.3125 6.546875 -3.171875 7.390625 -3.171875 C 9.128906 -3.171875 10 -3.671875 10 -4.671875 C 10 -5.046875 9.882812 -5.347656 9.65625 -5.578125 C 9.425781 -5.816406 9.023438 -6.082031 8.453125 -6.375 C 7.890625 -6.675781 7.140625 -7.023438 6.203125 -7.421875 C 4.859375 -7.992188 3.867188 -8.519531 3.234375 -9 C 2.609375 -9.476562 2.148438 -10.023438 1.859375 -10.640625 C 1.578125 -11.265625 1.4375 -12.03125 1.4375 -12.9375 C 1.4375 -14.488281 2.035156 -15.6875 3.234375 -16.53125 C 4.441406 -17.382812 6.15625 -17.8125 8.375 -17.8125 C 10.476562 -17.8125 12.523438 -17.351562 14.515625 -16.4375 L 13.078125 -13 C 12.203125 -13.375 11.382812 -13.679688 10.625 -13.921875 C 9.863281 -14.160156 9.085938 -14.28125 8.296875 -14.28125 C 6.878906 -14.28125 6.171875 -13.898438 6.171875 -13.140625 C 6.171875 -12.710938 6.394531 -12.34375 6.84375 -12.03125 C 7.300781 -11.71875 8.300781 -11.253906 9.84375 -10.640625 C 11.207031 -10.085938 12.207031 -9.570312 12.84375 -9.09375 C 13.476562 -8.613281 13.945312 -8.054688 14.25 -7.421875 C 14.550781 -6.796875 14.703125 -6.050781 14.703125 -5.1875 Z M 14.703125 -5.1875 "/></g></g></g></svg>